<svg width="132pt" height="21pt" viewBox="0 0 132 21" xmlns="http://www.w3.org/2000/svg"><g id="fontsvg1682480205172" stroke-linecap="round" fill-rule="evenodd" fill="#f7f0f0"><path d="M 71.865 1.729 L 73.315 0.483 L 76.23 0.483 A 4.377 4.377 0 0 1 77.695 1.729 A 8.767 8.767 0 0 0 78.016 3.513 A 9.917 9.917 0 0 0 78.105 3.809 L 78.105 6.519 L 79.146 10.884 L 78.735 12.759 A 4.141 4.141 0 0 0 79.675 12.301 A 5.265 5.265 0 0 0 80.186 11.924 L 79.775 10.474 L 81.226 3.604 L 81.445 1.318 A 3.433 3.433 0 0 1 82.696 0.773 A 4.221 4.221 0 0 1 83.101 0.703 L 85.181 0.894 A 3.655 3.655 0 0 1 86.775 1.483 A 4.265 4.265 0 0 1 86.836 1.523 A 6.967 6.967 0 0 1 87.256 2.58 A 8.91 8.91 0 0 1 87.466 3.398 L 88.931 11.514 L 88.506 11.924 Q 88.872 12.715 89.546 13.374 A 3.961 3.961 0 0 0 89.943 12.571 Q 90.087 12.179 90.176 11.719 Q 89.82 10.951 89.768 9.907 A 6.967 6.967 0 0 1 89.766 9.844 L 90.586 2.358 A 4.768 4.768 0 0 1 91.175 1.262 A 6.038 6.038 0 0 1 91.626 0.703 L 94.336 0.483 L 96.211 1.318 L 96.826 2.358 L 96.416 3.193 L 93.501 14.004 L 92.666 15.879 Q 92.792 16.483 92.853 17.271 A 16.735 16.735 0 0 1 92.871 17.534 L 92.666 18.164 L 91.626 20.039 L 88.931 20.039 A 6.161 6.161 0 0 1 87.056 19.409 A 6.754 6.754 0 0 1 86.434 18.17 A 8.156 8.156 0 0 1 86.221 17.534 L 84.771 10.679 L 84.551 7.354 L 83.936 8.188 L 83.73 9.434 L 83.936 9.844 L 83.936 10.474 L 82.471 17.344 A 7.446 7.446 0 0 1 82.263 18.264 Q 82.104 18.81 81.855 19.409 L 78.94 20.244 L 77.285 20.039 A 5.344 5.344 0 0 1 76.475 18.772 A 6.563 6.563 0 0 1 76.23 18.164 L 75.41 16.509 Q 75.158 15.59 75.026 14.4 A 20.354 20.354 0 0 1 74.985 14.004 L 74.15 12.129 L 74.355 11.514 L 73.315 7.969 Q 72.993 6.973 72.92 5.889 L 71.865 1.729 Z M 98.408 0.293 L 101.807 0.718 L 105.205 0.498 L 107.959 0.718 L 110.098 0.293 L 110.728 0.718 A 13.978 13.978 0 0 1 111.244 2.859 A 16.392 16.392 0 0 1 111.357 3.691 Q 111.152 4.863 109.878 5.61 L 103.286 5.405 L 102.451 6.035 L 103.081 7.734 L 106.26 7.31 L 107.124 7.515 L 109.453 7.31 A 2.2 2.2 0 0 1 110.906 8.447 A 3.523 3.523 0 0 1 111.152 9.009 A 7.713 7.713 0 0 1 110.796 10.75 A 10.029 10.029 0 0 1 110.303 11.982 L 107.329 12.202 L 103.931 11.982 Q 102.803 12.334 102.217 13.682 A 5.411 5.411 0 0 0 103.727 14.655 A 6.857 6.857 0 0 0 104.561 14.956 A 11.875 11.875 0 0 1 106.037 14.676 Q 106.792 14.579 107.641 14.553 A 20.241 20.241 0 0 1 107.959 14.546 L 110.098 14.546 L 110.522 14.326 L 110.728 14.546 L 111.357 14.546 A 2.852 2.852 0 0 1 112.113 15.932 A 4.235 4.235 0 0 1 112.222 16.875 L 112.222 18.794 L 111.357 19.849 L 104.15 19.644 L 103.506 20.054 L 101.587 19.849 A 6.579 6.579 0 0 0 100.03 20.248 A 7.875 7.875 0 0 0 99.463 20.493 Q 98.291 19.951 97.119 18.999 L 97.119 11.558 L 96.914 10.708 L 97.339 8.584 L 96.914 6.46 L 97.339 5.815 L 97.119 4.116 L 97.339 3.691 L 97.339 2.417 A 5.889 5.889 0 0 1 97.875 1.119 A 7.651 7.651 0 0 1 98.408 0.293 Z M 5.815 0.923 L 8.716 0.088 L 11.836 0.923 A 19.905 19.905 0 0 1 13.431 1.548 A 25.375 25.375 0 0 1 14.736 2.168 A 12.781 12.781 0 0 1 16.786 3.995 A 14.067 14.067 0 0 1 16.816 4.028 A 9.185 9.185 0 0 1 15.814 5.912 A 10.882 10.882 0 0 1 15.366 6.519 A 11.057 11.057 0 0 1 12.836 7.11 A 12.51 12.51 0 0 1 12.451 7.148 L 9.961 5.684 L 7.676 5.479 L 6.841 5.903 Q 7.061 7.148 8.511 7.559 L 11.836 8.174 A 13.659 13.659 0 0 1 14.021 8.805 A 15.592 15.592 0 0 1 14.531 9.009 A 9.83 9.83 0 0 1 16.493 10.746 A 10.956 10.956 0 0 1 16.611 10.884 A 8.964 8.964 0 0 1 17.08 12.645 A 11.844 11.844 0 0 1 17.227 14.194 L 16.187 17.109 L 14.106 18.97 Q 12.729 19.526 11.001 19.805 L 7.881 20.42 Q 6.416 20.376 4.57 19.805 A 9.364 9.364 0 0 1 2.491 18.654 A 10.793 10.793 0 0 1 2.08 18.34 A 13.764 13.764 0 0 1 1.087 17.445 Q 0.618 16.983 0.138 16.433 A 22.704 22.704 0 0 1 0 16.274 A 3.534 3.534 0 0 1 1.197 14.899 A 5.03 5.03 0 0 1 2.08 14.414 A 3.701 3.701 0 0 1 3.952 13.445 A 4.923 4.923 0 0 1 4.57 13.359 A 16.653 16.653 0 0 0 5.851 14.243 A 20.836 20.836 0 0 0 6.841 14.824 L 7.881 15.234 L 10.166 15.029 A 3.576 3.576 0 0 0 11.291 14.501 A 4.125 4.125 0 0 0 11.411 14.414 A 1.513 1.513 0 0 0 11.162 13.592 Q 11.028 13.381 10.824 13.181 A 2.911 2.911 0 0 0 10.796 13.154 L 7.881 12.949 L 7.266 12.744 L 4.146 12.334 L 2.08 10.459 A 13.631 13.631 0 0 1 1.193 8.138 A 15.535 15.535 0 0 1 1.04 7.559 L 1.45 4.453 L 3.12 2.373 A 13.726 13.726 0 0 1 4.816 1.378 A 16.626 16.626 0 0 1 5.815 0.923 Z M 67.178 0.63 L 69.917 0 A 2.451 2.451 0 0 1 71.592 1.329 A 3.694 3.694 0 0 1 71.821 1.89 L 72.246 4.424 A 10.777 10.777 0 0 0 71.888 6.26 A 13.006 13.006 0 0 0 71.821 7.163 L 71.602 9.902 L 71.821 12.861 L 71.396 16.025 L 69.917 17.93 L 67.808 19.395 L 65.068 20.244 L 62.959 19.819 L 62.109 20.039 L 59.59 19.189 A 12.433 12.433 0 0 1 58.268 18.091 A 14.71 14.71 0 0 1 57.686 17.505 L 56.001 15.601 A 21.286 21.286 0 0 0 55.762 13.457 A 25.185 25.185 0 0 0 55.576 12.437 L 56.001 10.957 L 55.781 9.697 L 56.001 8.848 L 55.781 6.533 L 56.001 5.684 L 55.781 3.369 A 5.552 5.552 0 0 1 56.135 1.511 A 6.869 6.869 0 0 1 56.426 0.835 L 58.535 0.41 L 59.165 0.63 L 61.055 0.41 L 61.479 1.055 L 61.904 3.164 L 61.479 3.999 L 61.274 10.122 L 61.479 13.066 A 14.06 14.06 0 0 0 62.096 13.93 Q 62.436 14.371 62.842 14.837 A 23.31 23.31 0 0 0 62.959 14.971 L 64.863 15.176 L 65.698 14.546 L 66.548 12.012 L 66.123 3.574 L 65.918 2.944 L 66.123 2.739 A 5.083 5.083 0 0 1 67.081 0.751 A 5.921 5.921 0 0 1 67.178 0.63 Z M 130.928 4.424 L 131.133 6.782 A 1.415 1.415 0 0 0 131.036 7.023 Q 130.958 7.277 130.929 7.635 A 4.521 4.521 0 0 0 130.928 7.646 L 130.283 8.291 A 16.894 16.894 0 0 1 129.14 9.139 A 21.522 21.522 0 0 1 128.13 9.785 L 129.419 10.005 A 6.317 6.317 0 0 1 131.257 12.406 A 8.026 8.026 0 0 1 131.572 13.228 L 131.777 15.161 L 131.572 15.791 L 130.693 17.3 A 9.245 9.245 0 0 1 129.49 18.453 Q 128.855 18.964 128.074 19.44 A 16.311 16.311 0 0 1 127.705 19.658 A 22.585 22.585 0 0 1 125.883 19.92 Q 124.635 20.05 123.193 20.083 L 119.971 20.303 L 119.326 20.083 L 118.682 20.083 L 116.338 20.303 L 115.693 20.083 Q 115.298 19.482 115.049 18.589 L 114.814 13.872 L 115.049 10.43 L 114.814 9.565 L 115.049 4.863 L 114.609 1.846 L 115.693 0.776 L 119.326 0.557 L 120.19 0.776 A 25.23 25.23 0 0 0 121.652 0.696 Q 122.944 0.59 124.482 0.352 A 23.163 23.163 0 0 1 126.438 0.78 A 31.225 31.225 0 0 1 128.555 1.421 A 14.853 14.853 0 0 1 129.763 2.78 Q 130.356 3.53 130.928 4.424 Z M 45.996 1.274 L 46.421 1.919 L 45.996 5.112 L 46.421 7.881 L 45.996 8.525 L 46.201 14.722 L 46.421 14.722 L 46.201 15.352 L 47.065 14.927 L 50.259 14.282 L 50.903 14.502 A 9.319 9.319 0 0 1 52.341 14.695 A 11.566 11.566 0 0 1 53.247 14.927 L 53.452 19.189 L 52.397 20.039 L 47.915 19.834 A 25.692 25.692 0 0 1 45.978 20.102 Q 45.02 20.2 43.958 20.246 A 41.79 41.79 0 0 1 43.652 20.259 L 41.309 20.259 Q 40.979 19.739 40.737 19 A 8.421 8.421 0 0 1 40.664 18.765 L 40.444 16.421 L 40.664 14.927 L 40.239 13.008 L 40.664 11.089 L 40.444 7.031 L 40.664 5.112 L 40.444 3.618 L 40.239 2.988 Q 40.532 1.318 42.158 0.205 A 10.642 10.642 0 0 1 44.529 0.698 A 13.538 13.538 0 0 1 45.996 1.274 Z M 34.673 2.432 L 37.104 4.878 A 19.777 19.777 0 0 0 37.556 6.927 A 26.037 26.037 0 0 0 38.13 8.745 L 37.72 13.008 A 5.954 5.954 0 0 1 37.045 14.897 A 8.352 8.352 0 0 1 36.108 16.245 Q 35.395 17.508 34.051 18.732 A 14.953 14.953 0 0 1 33.867 18.896 Q 32.396 19.632 30.471 20.296 A 38.64 38.64 0 0 1 30.41 20.317 L 25.942 20.112 A 13.248 13.248 0 0 1 24.243 19.22 A 17.367 17.367 0 0 1 22.896 18.296 Q 21.914 17.44 20.964 16.097 A 18.607 18.607 0 0 1 20.654 15.645 A 14.894 14.894 0 0 1 19.954 13.593 A 18.605 18.605 0 0 1 19.644 12.202 L 19.438 10.151 L 19.849 8.13 A 13.937 13.937 0 0 1 20.513 6.225 A 18.327 18.327 0 0 1 21.27 4.673 A 17.646 17.646 0 0 1 22.211 3.638 Q 22.711 3.128 23.299 2.597 A 30.088 30.088 0 0 1 23.701 2.241 A 11.293 11.293 0 0 1 24.868 1.415 Q 25.702 0.896 26.748 0.41 A 25.968 25.968 0 0 1 28.887 0.612 A 35.203 35.203 0 0 1 31.23 1.011 Q 32.886 1.421 34.673 2.432 Z M 25.942 7.515 L 24.917 10.562 L 26.147 13.608 A 8.805 8.805 0 0 0 27.488 14.316 Q 28.159 14.603 28.939 14.825 A 14.416 14.416 0 0 0 28.989 14.839 Q 30.264 14.253 31.626 13.418 L 32.241 10.767 L 32.036 10.151 A 17.529 17.529 0 0 0 31.555 7.948 A 20.665 20.665 0 0 0 31.23 6.914 A 15.135 15.135 0 0 0 29.517 6.11 A 18.528 18.528 0 0 0 28.374 5.698 A 11.025 11.025 0 0 0 26.841 6.73 A 13.68 13.68 0 0 0 25.942 7.515 Z M 123.838 12.144 L 120.19 12.583 L 120.615 15.161 L 121.904 15.366 A 18.025 18.025 0 0 0 123.495 15.017 Q 124.568 14.734 125.771 14.297 A 2.812 2.812 0 0 0 124.345 12.378 A 3.836 3.836 0 0 0 123.838 12.144 Z M 125.771 6.357 L 122.974 5.493 L 120.19 5.713 L 120.615 7.852 L 122.329 8.291 L 122.974 7.852 Q 124.409 7.5 125.771 6.357 Z M 83.936 3.604 L 83.101 5.479 L 84.141 6.094 L 84.346 5.054 L 85.605 5.684 L 86.016 4.863 A 6.88 6.88 0 0 1 84.774 4.221 A 8.853 8.853 0 0 1 83.936 3.604 Z M 12.246 12.539 L 13.491 12.744 L 13.696 12.334 L 13.271 12.129 L 12.656 11.499 L 12.451 12.334 A 6.279 6.279 0 0 1 11.752 11.617 A 8.398 8.398 0 0 1 11.206 10.884 A 2.716 2.716 0 0 0 11.906 12.22 A 3.599 3.599 0 0 0 12.246 12.539 Z M 118.037 14.941 L 117.188 15.586 L 118.037 17.52 L 118.682 17.3 A 9.686 9.686 0 0 0 118.36 15.868 A 12.152 12.152 0 0 0 118.037 14.941 Z M 5.186 7.354 L 4.775 6.738 A 7.851 7.851 0 0 0 3.756 9.129 A 8.824 8.824 0 0 0 3.735 9.214 L 4.57 9.214 L 5.186 7.354 Z M 10.576 2.988 L 11.206 4.644 L 12.656 4.233 A 6.339 6.339 0 0 0 11.232 3.276 A 7.675 7.675 0 0 0 10.576 2.988 Z M 100.313 15.381 Q 100.342 16.89 101.807 17.52 A 4.471 4.471 0 0 0 100.76 15.799 A 5.638 5.638 0 0 0 100.312 15.381 Z M 35.083 7.72 L 34.468 7.104 L 33.662 8.335 A 1.001 1.001 0 0 0 34.222 8.913 A 1.356 1.356 0 0 0 34.277 8.936 A 3.6 3.6 0 0 0 34.648 8.479 Q 34.877 8.148 35.083 7.72 Z M 33.867 14.634 A 3.82 3.82 0 0 0 32.651 16.465 Q 33.75 15.85 33.867 14.634 Z M 26.338 16.245 L 25.532 17.271 L 26.953 17.681 A 2.72 2.72 0 0 0 26.612 16.659 A 3.513 3.513 0 0 0 26.338 16.245 Z M 99.258 7.31 L 99.038 7.734 L 99.258 8.804 L 99.463 9.214 L 99.683 7.734 A 0.446 0.446 0 0 0 99.527 7.464 Q 99.462 7.406 99.37 7.359 A 1.168 1.168 0 0 0 99.258 7.31 Z M 58.535 14.341 L 58.11 12.656 L 57.686 14.121 L 58.535 14.341 Z M 45.132 16.201 L 44.077 15.996 L 43.857 17.065 L 44.502 17.271 L 45.132 16.201 Z M 118.682 8.291 L 118.037 8.071 L 117.188 8.716 A 1.746 1.746 0 0 0 117.933 9.318 A 2.15 2.15 0 0 0 118.037 9.36 L 118.682 8.291 Z M 44.077 8.101 L 43.652 7.881 L 43.228 9.155 Q 43.448 9.281 43.789 9.347 A 3.521 3.521 0 0 0 44.077 9.39 L 44.297 8.525 L 44.077 8.101 Z M 22.896 14.224 L 23.291 14.839 L 24.316 14.019 A 1.113 1.113 0 0 0 23.755 13.443 A 1.453 1.453 0 0 0 23.701 13.418 Q 23.473 13.742 23.078 14.076 A 5.807 5.807 0 0 1 22.896 14.224 Z M 119.546 16.655 A 5.697 5.697 0 0 0 120.252 17.362 A 7.814 7.814 0 0 0 121.04 17.944 Q 120.506 17.237 119.574 16.672 A 7.306 7.306 0 0 0 119.546 16.655 Z M 78.516 14.414 Q 78.926 15.234 79.98 15.674 A 2.723 2.723 0 0 0 79.067 14.709 A 3.707 3.707 0 0 0 78.516 14.414 Z M 26.338 3.252 A 4.763 4.763 0 0 0 26.932 4.069 A 6.384 6.384 0 0 0 27.554 4.673 Q 27.495 3.604 26.338 3.252 Z M 22.485 8.525 L 22.69 9.346 Q 22.503 9.413 22.316 9.687 A 2.03 2.03 0 0 0 22.28 9.741 A 0.412 0.412 0 0 0 22.474 10.053 Q 22.543 10.099 22.636 10.133 A 1.082 1.082 0 0 0 22.69 10.151 L 22.896 8.936 Q 22.86 8.72 22.609 8.583 A 1.139 1.139 0 0 0 22.485 8.525 Z M 126.636 3.779 A 2.073 2.073 0 0 0 127.283 4.765 A 2.907 2.907 0 0 0 127.705 5.068 A 2.616 2.616 0 0 0 127.093 4.157 A 3.513 3.513 0 0 0 126.636 3.779 Z M 89.546 16.919 L 88.931 16.509 L 88.506 17.344 L 88.711 17.754 Q 89.136 17.461 89.546 16.919 Z M 120.615 2.49 L 122.124 3.135 A 3.949 3.949 0 0 0 121.242 2.678 A 5.1 5.1 0 0 0 120.615 2.49 Z M 44.077 14.282 L 43.433 13.857 L 43.228 15.132 Q 43.598 14.929 43.929 14.492 A 3.859 3.859 0 0 0 44.077 14.282 Z M 103.081 10.283 L 102.451 9.639 L 101.807 10.503 L 103.081 10.283 Z M 118.257 5.273 L 117.612 5.918 L 118.682 6.357 A 1.806 1.806 0 0 0 118.477 5.624 A 2.434 2.434 0 0 0 118.257 5.273 Z M 75.82 7.559 L 75.19 7.559 Q 75.217 8.085 75.538 8.67 A 4.068 4.068 0 0 0 75.615 8.804 L 75.82 7.559 Z M 5.596 5.068 L 5.186 4.233 L 4.365 4.863 L 5.596 5.068 Z M 7.881 17.93 L 6.431 17.93 A 0.442 0.442 0 0 0 6.606 18.216 Q 6.673 18.268 6.765 18.309 A 1.103 1.103 0 0 0 6.841 18.34 L 7.881 17.93 Z M 99.038 11.558 A 2.545 2.545 0 0 0 99.556 12.509 A 3.316 3.316 0 0 0 99.888 12.847 A 2.288 2.288 0 0 0 99.038 11.558 Z M 3.955 15.864 L 3.735 16.274 L 3.955 16.89 Q 4.282 16.668 4.608 16.27 A 5.24 5.24 0 0 0 4.775 16.055 L 3.955 15.864 Z M 21.68 10.767 A 1.412 1.412 0 0 0 22.453 11.693 A 2.036 2.036 0 0 0 22.69 11.792 A 1.987 1.987 0 0 0 21.832 10.847 A 2.557 2.557 0 0 0 21.68 10.767 Z M 9.126 9.434 L 8.511 9.214 L 8.101 9.844 L 8.936 10.049 L 9.126 9.434 Z M 43.228 10.664 L 42.583 11.938 Q 43.081 11.411 43.228 10.664 Z M 70.137 9.067 L 68.862 8.438 A 3.623 3.623 0 0 0 70.137 9.067 Z M 11.836 16.274 A 1.604 1.604 0 0 0 12.37 17.446 A 2.189 2.189 0 0 0 12.451 17.52 A 2.685 2.685 0 0 0 12.128 16.695 A 3.5 3.5 0 0 0 11.836 16.274 Z M 124.263 2.93 Q 124.482 3.618 125.127 3.984 A 1.286 1.286 0 0 0 124.511 3.059 A 1.853 1.853 0 0 0 124.263 2.93 Z M 44.722 4.688 L 43.652 3.823 A 2.036 2.036 0 0 0 44.361 4.509 A 2.703 2.703 0 0 0 44.722 4.687 Z M 58.315 5.273 Q 58.652 5.815 59.37 6.108 A 1.429 1.429 0 0 0 58.752 5.456 A 2.167 2.167 0 0 0 58.315 5.273 Z M 43.022 4.893 L 42.788 5.757 L 43.433 5.962 A 1.837 1.837 0 0 0 43.2 5.168 A 2.386 2.386 0 0 0 43.022 4.893 Z M 105.425 16.245 L 105.205 17.3 L 105.85 17.095 A 1.172 1.172 0 0 0 105.662 16.537 A 1.707 1.707 0 0 0 105.425 16.245 Z M 29.795 16.055 L 30.615 17.065 A 1.488 1.488 0 0 0 29.893 16.107 A 1.857 1.857 0 0 0 29.795 16.055 Z M 119.121 12.583 L 118.037 11.938 A 1.828 1.828 0 0 0 118.834 12.497 A 2.393 2.393 0 0 0 119.121 12.583 Z M 68.862 11.382 Q 68.979 11.953 69.492 12.437 A 1.474 1.474 0 0 0 69.137 11.649 A 2.104 2.104 0 0 0 68.862 11.382 Z M 13.916 10.664 A 1.572 1.572 0 0 0 14.342 11.526 A 2.114 2.114 0 0 0 14.531 11.704 Q 14.385 11.133 13.916 10.664 Z M 128.35 14.517 L 127.91 15.586 A 1.572 1.572 0 0 0 128.35 14.517 Z M 24.727 4.673 L 24.316 4.058 L 24.507 5.083 L 24.727 4.673 Z M 125.552 16.436 A 1.201 1.201 0 0 0 126.008 17.171 A 1.715 1.715 0 0 0 126.196 17.3 A 1.066 1.066 0 0 0 125.81 16.613 A 1.645 1.645 0 0 0 125.552 16.436 Z M 69.492 6.738 L 69.082 6.738 L 68.862 7.383 L 69.287 7.383 L 69.492 6.738 Z M 33.457 4.673 L 33.252 4.673 L 32.842 5.288 L 33.457 5.288 L 33.457 4.673 Z M 24.507 5.479 L 24.316 6.299 L 24.917 5.889 A 0.4 0.4 0 0 0 24.853 5.768 Q 24.778 5.668 24.629 5.561 A 2.19 2.19 0 0 0 24.507 5.479 Z M 8.511 2.988 L 7.881 3.823 A 1.138 1.138 0 0 0 8.204 3.633 Q 8.459 3.413 8.504 3.051 A 1.225 1.225 0 0 0 8.511 2.988 Z M 43.228 2.988 L 42.788 3.413 L 43.433 3.618 L 43.433 2.988 L 43.228 2.988 Z M 76.025 4.438 L 75.615 3.809 L 75.41 4.438 L 76.025 4.438 Z M 69.287 3.999 L 69.082 3.999 L 68.862 4.629 L 69.287 4.629 L 69.287 3.999 Z M 62.329 17.08 L 61.479 16.655 A 1.408 1.408 0 0 0 62.281 17.073 A 1.755 1.755 0 0 0 62.329 17.08 Z M 92.051 9.639 A 1.069 1.069 0 0 0 92.208 10.155 Q 92.296 10.302 92.432 10.444 A 2.034 2.034 0 0 0 92.461 10.474 A 1.09 1.09 0 0 0 92.261 9.884 A 1.587 1.587 0 0 0 92.051 9.639 Z M 69.492 2.944 L 68.657 2.52 A 1.181 1.181 0 0 0 69.476 2.943 A 1.491 1.491 0 0 0 69.492 2.944 Z M 119.971 8.921 L 120.615 9.565 A 0.974 0.974 0 0 0 120.104 8.98 A 1.398 1.398 0 0 0 119.971 8.921 Z M 28.374 1.831 L 28.169 1.831 L 27.964 2.432 L 28.374 2.432 L 28.374 1.831 Z M 66.548 16.655 A 0.997 0.997 0 0 0 67.099 17.253 A 1.297 1.297 0 0 0 67.178 17.285 A 0.988 0.988 0 0 0 66.756 16.763 A 1.431 1.431 0 0 0 66.548 16.655 Z M 126.841 7.207 L 126.636 7.646 L 127.061 7.852 L 127.061 7.207 L 126.841 7.207 Z M 86.836 11.719 L 86.631 12.129 L 87.056 12.349 L 87.056 11.719 L 86.836 11.719 Z M 125.771 9.565 L 125.347 9.565 L 125.552 10.21 L 125.771 9.565 Z M 23.291 6.299 L 23.101 6.299 L 22.896 6.914 L 23.291 6.694 L 23.291 6.299 Z M 117.612 12.788 L 117.188 12.583 L 117.393 13.228 L 117.612 12.788 Z M 126.636 9.36 L 125.991 9.141 A 0.501 0.501 0 0 0 126.205 9.459 Q 126.281 9.513 126.384 9.553 A 1.138 1.138 0 0 0 126.416 9.565 L 126.636 9.36 Z M 126.841 11.938 L 127.266 12.583 A 1.022 1.022 0 0 0 127.166 12.275 A 0.83 0.83 0 0 0 126.841 11.938 Z M 101.382 9.858 L 100.957 9.214 A 1.08 1.08 0 0 0 101.088 9.557 A 0.935 0.935 0 0 0 101.382 9.858 Z M 99.683 5.61 L 99.258 4.966 A 1.08 1.08 0 0 0 99.389 5.309 A 0.935 0.935 0 0 0 99.683 5.61 Z M 99.258 14.326 L 99.888 14.751 Q 99.728 14.472 99.341 14.35 A 1.621 1.621 0 0 0 99.258 14.326 Z M 5.596 3.208 L 4.98 2.988 A 0.489 0.489 0 0 0 5.176 3.285 Q 5.248 3.339 5.345 3.38 A 1.106 1.106 0 0 0 5.391 3.398 L 5.596 3.208 Z M 33.062 5.889 L 32.446 5.479 Q 32.564 5.797 32.891 5.868 A 0.933 0.933 0 0 0 33.062 5.889 Z M 13.491 14.604 L 13.696 14.414 L 13.081 14.194 A 0.507 0.507 0 0 0 13.176 14.358 Q 13.276 14.479 13.465 14.59 A 1.867 1.867 0 0 0 13.491 14.604 Z M 12.861 16.274 L 12.451 15.645 A 1.078 1.078 0 0 0 12.585 15.987 A 0.945 0.945 0 0 0 12.861 16.274 Z M 93.501 5.684 L 93.281 5.684 L 93.501 6.313 L 93.501 5.684 Z M 68.232 13.066 L 68.027 13.491 L 68.438 13.491 L 68.438 13.066 L 68.232 13.066 Z M 31.23 17.476 L 30.82 16.86 A 0.9 0.9 0 0 0 31.208 17.461 A 1.093 1.093 0 0 0 31.23 17.476 Z M 36.108 13.198 L 35.493 12.803 A 0.806 0.806 0 0 0 36.033 13.185 A 1.068 1.068 0 0 0 36.108 13.198 Z M 33.867 3.867 L 33.662 3.867 L 33.867 4.468 L 33.867 3.867 Z M 78.311 12.964 L 77.9 12.759 L 77.9 13.184 L 78.311 12.964 Z M 128.853 14.438 A 1.342 1.342 0 0 0 128.994 14.517 Q 128.936 14.224 128.555 14.077 Q 128.612 14.285 128.853 14.438 Z M 117.188 2.695 A 0.521 0.521 0 0 0 117.388 3.01 Q 117.463 3.068 117.564 3.114 A 1.171 1.171 0 0 0 117.612 3.135 A 0.462 0.462 0 0 0 117.467 2.869 Q 117.363 2.77 117.188 2.695 Z M 119.121 17.3 A 0.494 0.494 0 0 0 119.292 17.578 Q 119.362 17.637 119.459 17.686 A 1.175 1.175 0 0 0 119.546 17.725 A 0.446 0.446 0 0 0 119.391 17.454 Q 119.325 17.396 119.233 17.349 A 1.168 1.168 0 0 0 119.121 17.3 Z M 88.931 14.209 A 0.51 0.51 0 0 0 89.007 14.345 Q 89.095 14.461 89.264 14.581 A 2.214 2.214 0 0 0 89.341 14.634 A 0.459 0.459 0 0 0 89.179 14.353 Q 89.112 14.296 89.02 14.249 A 1.136 1.136 0 0 0 88.931 14.209 Z M 5.815 2.578 A 0.489 0.489 0 0 0 6.011 2.875 Q 6.083 2.928 6.18 2.97 A 1.106 1.106 0 0 0 6.226 2.988 A 0.442 0.442 0 0 0 6.05 2.702 Q 5.983 2.65 5.891 2.609 A 1.103 1.103 0 0 0 5.815 2.578 Z M 35.602 11.337 A 1.154 1.154 0 0 0 35.698 11.382 A 0.489 0.489 0 0 0 35.503 11.085 Q 35.431 11.031 35.334 10.99 A 1.106 1.106 0 0 0 35.288 10.972 Q 35.338 11.197 35.602 11.337 Z M 9.692 18.3 A 2.085 2.085 0 0 0 9.756 18.34 A 0.489 0.489 0 0 0 9.561 18.043 Q 9.489 17.989 9.392 17.948 A 1.106 1.106 0 0 0 9.346 17.93 Q 9.412 18.115 9.692 18.3 Z M 79.917 14.169 A 2.085 2.085 0 0 0 79.98 14.209 Q 79.93 13.984 79.667 13.844 A 1.154 1.154 0 0 0 79.57 13.799 Q 79.636 13.984 79.917 14.169 Z M 117.393 10.21 L 117.612 10.649 L 117.612 10.21 L 117.393 10.21 Z M 99.463 3.691 L 99.683 4.116 L 99.683 3.691 L 99.463 3.691 Z M 8.936 17.3 L 9.126 17.725 L 9.126 17.3 L 8.936 17.3 Z M 5.391 16.479 L 5.596 16.89 L 5.596 16.479 L 5.391 16.479 Z M 30.615 3.047 L 30.82 3.457 L 30.82 3.047 L 30.615 3.047 Z M 92.666 7.354 L 92.871 7.764 L 92.871 7.354 L 92.666 7.354 Z M 76.45 9.639 L 76.641 10.049 L 76.641 9.639 L 76.45 9.639 Z" vector-effect="non-scaling-stroke"/></g></svg>